<svg xmlns="http://www.w3.org/2000/svg" width="47.273" height="40" viewBox="0 0 47.273 40"><defs><style>.a{fill:#8cc45b;}</style></defs><path class="a" d="M29.77,4a5.951,5.951,0,0,0-5.952,5.952c0,5.7,6.589,11.143,9.7,13.587q.048.043.1.082l.018.014a1.818,1.818,0,0,0,2.188,0l.025-.021.011-.007.025-.021c3.09-2.425,9.755-7.9,9.755-13.633A5.951,5.951,0,0,0,39.685,4a6.479,6.479,0,0,0-4.957,2.727A6.479,6.479,0,0,0,29.77,4ZM12.909,22.182a5.455,5.455,0,0,0-2.031.394L2,25.818V40.364l7.674-3.335A3.659,3.659,0,0,1,12.518,37L29,43.73h.007a2.693,2.693,0,0,0,2.518-.089h.011l16.339-9.077,0,0a2.723,2.723,0,0,0-2.482-4.844v0l-12.479,5.2H30.182a2.727,2.727,0,0,0,.845-5.32v0L15.221,22.693H15.2a5.455,5.455,0,0,0-2.29-.511Z" transform="translate(-2 -4)"/></svg>