<svg xmlns="http://www.w3.org/2000/svg" width="38.4" height="40" viewBox="0 0 38.4 40"><defs><style>.a{fill:#8cc45b;}</style></defs><path class="a" d="M19,2a4.825,4.825,0,0,0-4.8,4.8,4.7,4.7,0,0,0,.3,1.6H6.2A3.2,3.2,0,0,0,3,11.6v3.2H41.4V11.6a3.2,3.2,0,0,0-3.2-3.2H29.9a4.7,4.7,0,0,0,.3-1.6A4.825,4.825,0,0,0,25.4,2a4.76,4.76,0,0,0-3.2,1.259A4.76,4.76,0,0,0,19,2Zm0,3.2a1.575,1.575,0,0,1,1.6,1.6V8.4H19a1.6,1.6,0,1,1,0-3.2Zm6.4,0a1.6,1.6,0,0,1,0,3.2H23.8V6.8A1.575,1.575,0,0,1,25.4,5.2ZM4.6,18V38.8A3.2,3.2,0,0,0,7.8,42H20.6V18Zm19.2,0V42H36.6a3.2,3.2,0,0,0,3.2-3.2V18Z" transform="translate(-3 -2)"/></svg>