<svg xmlns="http://www.w3.org/2000/svg" width="47.273" height="40" viewBox="0 0 47.273 40"><defs><style>.a{fill:#8cc45b;}</style></defs><path class="a" d="M39.947,5.818c-4.964,0-6.038,1.818-6.038,1.818A5.457,5.457,0,0,0,28.455,4C26.189,4,23,6.144,23,10.909c0,7.76,4.725,11.633,4.773,11.673A1.817,1.817,0,1,1,25.5,25.418c-.251-.2-6.136-5.024-6.136-14.509a11.863,11.863,0,0,1,1.071-5.091H14.169C8.115,5.818,3,11.455,3,18.545c0,7.747,5.069,8.589,5.435,23.7A1.81,1.81,0,0,0,10.251,44h5.476a1.819,1.819,0,0,0,1.818-1.818V35.818a2.727,2.727,0,1,1,5.455,0v6.364A1.819,1.819,0,0,0,24.818,44h4.7a1.81,1.81,0,0,0,1.818-1.813C31.318,37.456,33.149,24,37.545,24c2.836,0,5.691,3.118,5.455,8.555,0,4.738-2.825,6.7-4.409,7.429a1.837,1.837,0,0,0-1.045,1.68h0a1.881,1.881,0,0,0,2.509,1.775c5.658-2.047,10.218-9.342,10.218-23.075C50.273,9.167,44.2,5.818,39.947,5.818Zm4.871,14.545A1.718,1.718,0,0,1,43,18.545a1.818,1.818,0,1,1,3.636,0A1.718,1.718,0,0,1,44.818,20.364Z" transform="translate(-3 -4)"/></svg>