<svg xmlns="http://www.w3.org/2000/svg" width="30.769" height="40" viewBox="0 0 30.769 40"><defs><style>.a{fill:#8cc45b;}</style></defs><path class="a" d="M35.318,10.912,26.857,2.451A1.537,1.537,0,0,0,25.769,2H8.077A3.076,3.076,0,0,0,5,5.077V38.923A3.076,3.076,0,0,0,8.077,42H32.692a3.076,3.076,0,0,0,3.077-3.077V12A1.537,1.537,0,0,0,35.318,10.912ZM12.692,22a1.538,1.538,0,1,1,1.538-1.538A1.539,1.539,0,0,1,12.692,22Zm0,6.154a1.538,1.538,0,1,1,1.538-1.538A1.539,1.539,0,0,1,12.692,28.154Zm0,6.154a1.538,1.538,0,1,1,1.538-1.538A1.539,1.539,0,0,1,12.692,34.308Zm15.385,0H18.846a1.538,1.538,0,1,1,0-3.077h9.231a1.538,1.538,0,1,1,0,3.077Zm0-6.154H18.846a1.538,1.538,0,0,1,0-3.077h9.231a1.538,1.538,0,0,1,0,3.077Zm0-6.154H18.846a1.538,1.538,0,0,1,0-3.077h9.231a1.538,1.538,0,0,1,0,3.077Zm-1.538-9.231A1.539,1.539,0,0,1,25,11.231v-6.3l7.84,7.84Z" transform="translate(-5 -2)"/></svg>